<svg xmlns="http://www.w3.org/2000/svg" xmlns:xlink="http://www.w3.org/1999/xlink" width="500" zoomAndPan="magnify" viewBox="0 0 375 209.999996" height="280" preserveAspectRatio="xMidYMid meet" version="1.0"><defs><g/><clipPath id="ab39463d83"><path d="M 29.273438 105.003906 L 346.5 105.003906 L 346.5 119.742188 L 29.273438 119.742188 Z M 29.273438 105.003906 " clip-rule="nonzero"/></clipPath><clipPath id="08bd6b7d45"><path d="M 57.566406 114.058594 L 75.402344 114.058594 L 75.402344 117.9375 L 57.566406 117.9375 Z M 57.566406 114.058594 " clip-rule="nonzero"/></clipPath><clipPath id="04841499aa"><path d="M 14 67 L 49 67 L 49 142 L 14 142 Z M 14 67 " clip-rule="nonzero"/></clipPath><clipPath id="173bdf0684"><path d="M 38.480469 67.601562 L 48.746094 71.148438 L 24.441406 141.527344 L 14.175781 137.984375 Z M 38.480469 67.601562 " clip-rule="nonzero"/></clipPath></defs><rect x="-37.5" width="450" fill="#ffffff" y="-21" height="251.999995" fill-opacity="1"/><rect x="-37.5" width="450" fill="#ffffff" y="-21" height="251.999995" fill-opacity="1"/><g fill="#454546" fill-opacity="1"><g transform="translate(7.683466, 141.458625)"><g><path d="M 2.484375 0 L 30.078125 -75.453125 L 45.59375 -75.453125 L 73.1875 0 L 58.53125 0 L 52.484375 -17.453125 L 23.0625 -17.453125 L 16.921875 0 Z M 26.84375 -28.234375 L 48.71875 -28.234375 L 37.71875 -59.609375 Z M 26.84375 -28.234375 "/></g></g></g><g fill="#454546" fill-opacity="1"><g transform="translate(83.23344, 141.458625)"><g><path d="M 33.09375 1.296875 C 27.5625 1.296875 22.675781 0.34375 18.4375 -1.5625 C 14.195312 -3.46875 10.851562 -6.195312 8.40625 -9.75 C 5.96875 -13.3125 4.710938 -17.640625 4.640625 -22.734375 L 19.1875 -22.734375 C 19.332031 -19.210938 20.609375 -16.25 23.015625 -13.84375 C 25.421875 -11.4375 28.742188 -10.234375 32.984375 -10.234375 C 36.648438 -10.234375 39.554688 -11.113281 41.703125 -12.875 C 43.859375 -14.632812 44.9375 -16.988281 44.9375 -19.9375 C 44.9375 -23.03125 43.984375 -25.4375 42.078125 -27.15625 C 40.179688 -28.882812 37.648438 -30.285156 34.484375 -31.359375 C 31.328125 -32.441406 27.953125 -33.59375 24.359375 -34.8125 C 18.535156 -36.820312 14.097656 -39.40625 11.046875 -42.5625 C 7.992188 -45.726562 6.46875 -49.9375 6.46875 -55.1875 C 6.394531 -59.632812 7.453125 -63.457031 9.640625 -66.65625 C 11.835938 -69.851562 14.835938 -72.332031 18.640625 -74.09375 C 22.453125 -75.851562 26.835938 -76.734375 31.796875 -76.734375 C 36.828125 -76.734375 41.265625 -75.832031 45.109375 -74.03125 C 48.953125 -72.238281 51.96875 -69.726562 54.15625 -66.5 C 56.351562 -63.269531 57.519531 -59.425781 57.65625 -54.96875 L 42.890625 -54.96875 C 42.828125 -57.625 41.804688 -59.972656 39.828125 -62.015625 C 37.847656 -64.066406 35.097656 -65.09375 31.578125 -65.09375 C 28.554688 -65.164062 26.019531 -64.429688 23.96875 -62.890625 C 21.925781 -61.347656 20.90625 -59.101562 20.90625 -56.15625 C 20.90625 -53.632812 21.695312 -51.640625 23.28125 -50.171875 C 24.863281 -48.703125 27.019531 -47.460938 29.75 -46.453125 C 32.476562 -45.441406 35.601562 -44.363281 39.125 -43.21875 C 42.863281 -41.925781 46.273438 -40.414062 49.359375 -38.6875 C 52.453125 -36.96875 54.929688 -34.6875 56.796875 -31.84375 C 58.671875 -29.007812 59.609375 -25.363281 59.609375 -20.90625 C 59.609375 -16.957031 58.597656 -13.289062 56.578125 -9.90625 C 54.566406 -6.53125 51.585938 -3.816406 47.640625 -1.765625 C 43.691406 0.273438 38.84375 1.296875 33.09375 1.296875 Z M 33.09375 1.296875 "/></g></g></g><g fill="#454546" fill-opacity="1"><g transform="translate(147.574852, 141.458625)"><g><path d="M 7.328125 0 L 7.328125 -75.453125 L 56.578125 -75.453125 L 56.578125 -64.34375 L 21.125 -64.34375 L 21.125 -43.65625 L 53.359375 -43.65625 L 53.359375 -32.875 L 21.125 -32.875 L 21.125 -11.09375 L 56.578125 -11.09375 L 56.578125 0 Z M 7.328125 0 "/></g></g></g><g fill="#5dc1b9" fill-opacity="1"><g transform="translate(209.865183, 141.458625)"><g><path d="M 7.328125 0 L 7.328125 -75.453125 L 56.578125 -75.453125 L 56.578125 -64.34375 L 21.125 -64.34375 L 21.125 -43.65625 L 53.359375 -43.65625 L 53.359375 -32.875 L 21.125 -32.875 L 21.125 -11.09375 L 56.578125 -11.09375 L 56.578125 0 Z M 7.328125 0 "/></g></g></g><g fill="#5dc1b9" fill-opacity="1"><g transform="translate(272.158883, 141.458625)"><g><path d="M 7.328125 0 L 7.328125 -75.453125 L 23.71875 -75.453125 L 47.75 -27.59375 L 71.453125 -75.453125 L 87.84375 -75.453125 L 87.84375 0 L 74.046875 0 L 74.046875 -52.0625 L 53.03125 -10.78125 L 42.140625 -10.78125 L 21.125 -52.0625 L 21.125 0 Z M 7.328125 0 "/></g></g></g><g clip-path="url(#ab39463d83)"><path fill="#ffffff" d="M 29.292969 105.003906 L 346.484375 105.003906 L 346.484375 119.742188 L 29.292969 119.742188 L 29.292969 105.003906 " fill-opacity="1" fill-rule="nonzero"/></g><g clip-path="url(#08bd6b7d45)"><path fill="#ffffff" d="M 57.566406 114.058594 L 75.402344 114.058594 L 75.402344 117.9375 L 57.566406 117.9375 L 57.566406 114.058594 " fill-opacity="1" fill-rule="nonzero"/></g><g clip-path="url(#04841499aa)"><g clip-path="url(#173bdf0684)"><path fill="#454546" d="M 38.480469 67.601562 L 48.746094 71.148438 L 24.441406 141.527344 L 14.175781 137.984375 L 38.480469 67.601562 " fill-opacity="1" fill-rule="nonzero"/></g></g><g fill="#8c8c8c" fill-opacity="1"><g transform="translate(28.887713, 157.154519)"><g><path d="M 0.453125 0 L 0.453125 -4.28125 L 1.859375 -4.28125 C 2.191406 -4.28125 2.460938 -4.222656 2.671875 -4.109375 C 2.890625 -4.003906 3.050781 -3.859375 3.15625 -3.671875 C 3.257812 -3.484375 3.3125 -3.269531 3.3125 -3.03125 C 3.3125 -2.800781 3.257812 -2.59375 3.15625 -2.40625 C 3.0625 -2.21875 2.90625 -2.066406 2.6875 -1.953125 C 2.46875 -1.835938 2.191406 -1.78125 1.859375 -1.78125 L 0.96875 -1.78125 L 0.96875 0 Z M 0.96875 -2.21875 L 1.84375 -2.21875 C 2.1875 -2.21875 2.429688 -2.289062 2.578125 -2.4375 C 2.722656 -2.582031 2.796875 -2.78125 2.796875 -3.03125 C 2.796875 -3.289062 2.722656 -3.488281 2.578125 -3.625 C 2.429688 -3.769531 2.1875 -3.84375 1.84375 -3.84375 L 0.96875 -3.84375 Z M 0.96875 -2.21875 "/></g></g></g><g fill="#8c8c8c" fill-opacity="1"><g transform="translate(37.068491, 157.154519)"><g><path d="M 0.453125 0 L 0.453125 -4.28125 L 0.96875 -4.28125 L 0.96875 -0.40625 L 2.953125 -0.40625 L 2.953125 0 Z M 0.453125 0 "/></g></g></g><g fill="#8c8c8c" fill-opacity="1"><g transform="translate(44.9196, 157.154519)"><g><path d="M 0.1875 0 L 1.765625 -4.28125 L 2.296875 -4.28125 L 3.875 0 L 3.328125 0 L 2.9375 -1.09375 L 1.125 -1.09375 L 0.71875 0 Z M 1.265625 -1.515625 L 2.78125 -1.515625 L 2.03125 -3.625 Z M 1.265625 -1.515625 "/></g></g></g><g fill="#8c8c8c" fill-opacity="1"><g transform="translate(53.619317, 157.154519)"><g><path d="M 0.453125 0 L 0.453125 -4.28125 L 0.96875 -4.28125 L 3.25 -0.84375 L 3.25 -4.28125 L 3.75 -4.28125 L 3.75 0 L 3.25 0 L 0.96875 -3.421875 L 0.96875 0 Z M 0.453125 0 "/></g></g></g><g fill="#8c8c8c" fill-opacity="1"><g transform="translate(62.471653, 157.154519)"><g><path d="M 0.453125 0 L 0.453125 -4.28125 L 0.96875 -4.28125 L 0.96875 0 Z M 0.453125 0 "/></g></g></g><g fill="#8c8c8c" fill-opacity="1"><g transform="translate(68.533975, 157.154519)"><g><path d="M 0.453125 0 L 0.453125 -4.28125 L 3.0625 -4.28125 L 3.0625 -3.859375 L 0.96875 -3.859375 L 0.96875 -2.359375 L 2.75 -2.359375 L 2.75 -1.9375 L 0.96875 -1.9375 L 0.96875 0 Z M 0.453125 0 "/></g></g></g><g fill="#8c8c8c" fill-opacity="1"><g transform="translate(76.440032, 157.154519)"><g><path d="M 0.453125 0 L 0.453125 -4.28125 L 0.96875 -4.28125 L 0.96875 0 Z M 0.453125 0 "/></g></g></g><g fill="#8c8c8c" fill-opacity="1"><g transform="translate(82.502354, 157.154519)"><g><path d="M 2.328125 0.078125 C 1.910156 0.078125 1.546875 -0.015625 1.234375 -0.203125 C 0.929688 -0.390625 0.695312 -0.648438 0.53125 -0.984375 C 0.363281 -1.316406 0.28125 -1.703125 0.28125 -2.140625 C 0.28125 -2.578125 0.363281 -2.957031 0.53125 -3.28125 C 0.695312 -3.613281 0.929688 -3.875 1.234375 -4.0625 C 1.546875 -4.25 1.910156 -4.34375 2.328125 -4.34375 C 2.816406 -4.34375 3.210938 -4.222656 3.515625 -3.984375 C 3.828125 -3.753906 4.023438 -3.429688 4.109375 -3.015625 L 3.546875 -3.015625 C 3.484375 -3.285156 3.347656 -3.5 3.140625 -3.65625 C 2.941406 -3.8125 2.671875 -3.890625 2.328125 -3.890625 C 2.023438 -3.890625 1.757812 -3.816406 1.53125 -3.671875 C 1.300781 -3.535156 1.125 -3.335938 1 -3.078125 C 0.875 -2.816406 0.8125 -2.503906 0.8125 -2.140625 C 0.8125 -1.773438 0.875 -1.457031 1 -1.1875 C 1.125 -0.925781 1.300781 -0.722656 1.53125 -0.578125 C 1.757812 -0.441406 2.023438 -0.375 2.328125 -0.375 C 2.671875 -0.375 2.941406 -0.453125 3.140625 -0.609375 C 3.347656 -0.765625 3.484375 -0.972656 3.546875 -1.234375 L 4.109375 -1.234375 C 4.023438 -0.828125 3.828125 -0.503906 3.515625 -0.265625 C 3.210938 -0.0351562 2.816406 0.078125 2.328125 0.078125 Z M 2.328125 0.078125 "/></g></g></g><g fill="#8c8c8c" fill-opacity="1"><g transform="translate(91.543954, 157.154519)"><g><path d="M 0.1875 0 L 1.765625 -4.28125 L 2.296875 -4.28125 L 3.875 0 L 3.328125 0 L 2.9375 -1.09375 L 1.125 -1.09375 L 0.71875 0 Z M 1.265625 -1.515625 L 2.78125 -1.515625 L 2.03125 -3.625 Z M 1.265625 -1.515625 "/></g></g></g><g fill="#8c8c8c" fill-opacity="1"><g transform="translate(100.243672, 157.154519)"><g><path d="M 2.328125 0.078125 C 1.910156 0.078125 1.546875 -0.015625 1.234375 -0.203125 C 0.929688 -0.390625 0.695312 -0.648438 0.53125 -0.984375 C 0.363281 -1.316406 0.28125 -1.703125 0.28125 -2.140625 C 0.28125 -2.578125 0.363281 -2.957031 0.53125 -3.28125 C 0.695312 -3.613281 0.929688 -3.875 1.234375 -4.0625 C 1.546875 -4.25 1.910156 -4.34375 2.328125 -4.34375 C 2.816406 -4.34375 3.210938 -4.222656 3.515625 -3.984375 C 3.828125 -3.753906 4.023438 -3.429688 4.109375 -3.015625 L 3.546875 -3.015625 C 3.484375 -3.285156 3.347656 -3.5 3.140625 -3.65625 C 2.941406 -3.8125 2.671875 -3.890625 2.328125 -3.890625 C 2.023438 -3.890625 1.757812 -3.816406 1.53125 -3.671875 C 1.300781 -3.535156 1.125 -3.335938 1 -3.078125 C 0.875 -2.816406 0.8125 -2.503906 0.8125 -2.140625 C 0.8125 -1.773438 0.875 -1.457031 1 -1.1875 C 1.125 -0.925781 1.300781 -0.722656 1.53125 -0.578125 C 1.757812 -0.441406 2.023438 -0.375 2.328125 -0.375 C 2.671875 -0.375 2.941406 -0.453125 3.140625 -0.609375 C 3.347656 -0.765625 3.484375 -0.972656 3.546875 -1.234375 L 4.109375 -1.234375 C 4.023438 -0.828125 3.828125 -0.503906 3.515625 -0.265625 C 3.210938 -0.0351562 2.816406 0.078125 2.328125 0.078125 Z M 2.328125 0.078125 "/></g></g></g><g fill="#8c8c8c" fill-opacity="1"><g transform="translate(109.285272, 157.154519)"><g><path d="M 0.453125 0 L 0.453125 -4.28125 L 0.96875 -4.28125 L 0.96875 0 Z M 0.453125 0 "/></g></g></g><g fill="#8c8c8c" fill-opacity="1"><g transform="translate(115.347594, 157.154519)"><g><path d="M 2.390625 0.078125 C 1.972656 0.078125 1.601562 -0.015625 1.28125 -0.203125 C 0.96875 -0.390625 0.722656 -0.648438 0.546875 -0.984375 C 0.367188 -1.316406 0.28125 -1.703125 0.28125 -2.140625 C 0.28125 -2.578125 0.367188 -2.957031 0.546875 -3.28125 C 0.722656 -3.613281 0.96875 -3.875 1.28125 -4.0625 C 1.601562 -4.25 1.972656 -4.34375 2.390625 -4.34375 C 2.816406 -4.34375 3.1875 -4.25 3.5 -4.0625 C 3.820312 -3.875 4.066406 -3.613281 4.234375 -3.28125 C 4.410156 -2.957031 4.5 -2.578125 4.5 -2.140625 C 4.5 -1.703125 4.410156 -1.316406 4.234375 -0.984375 C 4.066406 -0.648438 3.820312 -0.390625 3.5 -0.203125 C 3.1875 -0.015625 2.816406 0.078125 2.390625 0.078125 Z M 2.390625 -0.375 C 2.703125 -0.375 2.976562 -0.441406 3.21875 -0.578125 C 3.457031 -0.722656 3.644531 -0.925781 3.78125 -1.1875 C 3.914062 -1.457031 3.984375 -1.773438 3.984375 -2.140625 C 3.984375 -2.503906 3.914062 -2.816406 3.78125 -3.078125 C 3.644531 -3.335938 3.457031 -3.535156 3.21875 -3.671875 C 2.976562 -3.816406 2.703125 -3.890625 2.390625 -3.890625 C 2.078125 -3.890625 1.800781 -3.816406 1.5625 -3.671875 C 1.320312 -3.535156 1.132812 -3.335938 1 -3.078125 C 0.875 -2.816406 0.8125 -2.503906 0.8125 -2.140625 C 0.8125 -1.773438 0.875 -1.457031 1 -1.1875 C 1.132812 -0.925781 1.320312 -0.722656 1.5625 -0.578125 C 1.800781 -0.441406 2.078125 -0.375 2.390625 -0.375 Z M 2 -4.53125 L 2 -4.90625 L 3.28125 -5.6875 L 3.28125 -5.234375 Z M 2 -4.53125 "/></g></g></g><g fill="#8c8c8c" fill-opacity="1"><g transform="translate(124.779919, 157.154519)"><g><path d="M 0.453125 0 L 0.453125 -4.28125 L 0.96875 -4.28125 L 3.25 -0.84375 L 3.25 -4.28125 L 3.75 -4.28125 L 3.75 0 L 3.25 0 L 0.96875 -3.421875 L 0.96875 0 Z M 0.453125 0 "/></g></g></g><g fill="#8c8c8c" fill-opacity="1"><g transform="translate(133.632257, 157.154519)"><g/></g></g><g fill="#8ae0db" fill-opacity="1"><g transform="translate(139.891363, 157.154519)"><g><path d="M 0.453125 0.609375 L 0.453125 -4.40625 L 0.96875 -4.40625 L 0.96875 0.609375 Z M 0.453125 0.609375 "/></g></g></g><g fill="#8c8c8c" fill-opacity="1"><g transform="translate(145.948709, 157.154519)"><g/></g></g><g fill="#8c8c8c" fill-opacity="1"><g transform="translate(152.212494, 157.154519)"><g><path d="M 0.453125 0 L 0.453125 -4.28125 L 0.96875 -4.28125 L 0.96875 0 Z M 0.453125 0 "/></g></g></g><g fill="#8c8c8c" fill-opacity="1"><g transform="translate(158.274814, 157.154519)"><g><path d="M 0.453125 0 L 0.453125 -4.28125 L 1.046875 -4.28125 L 2.59375 -1.296875 L 4.125 -4.28125 L 4.71875 -4.28125 L 4.71875 0 L 4.203125 0 L 4.203125 -3.359375 L 2.78125 -0.609375 L 2.390625 -0.609375 L 0.96875 -3.359375 L 0.96875 0 Z M 0.453125 0 "/></g></g></g><g fill="#8c8c8c" fill-opacity="1"><g transform="translate(168.091761, 157.154519)"><g><path d="M 0.453125 0 L 0.453125 -4.28125 L 1.859375 -4.28125 C 2.191406 -4.28125 2.460938 -4.222656 2.671875 -4.109375 C 2.890625 -4.003906 3.050781 -3.859375 3.15625 -3.671875 C 3.257812 -3.484375 3.3125 -3.269531 3.3125 -3.03125 C 3.3125 -2.800781 3.257812 -2.59375 3.15625 -2.40625 C 3.0625 -2.21875 2.90625 -2.066406 2.6875 -1.953125 C 2.46875 -1.835938 2.191406 -1.78125 1.859375 -1.78125 L 0.96875 -1.78125 L 0.96875 0 Z M 0.96875 -2.21875 L 1.84375 -2.21875 C 2.1875 -2.21875 2.429688 -2.289062 2.578125 -2.4375 C 2.722656 -2.582031 2.796875 -2.78125 2.796875 -3.03125 C 2.796875 -3.289062 2.722656 -3.488281 2.578125 -3.625 C 2.429688 -3.769531 2.1875 -3.84375 1.84375 -3.84375 L 0.96875 -3.84375 Z M 0.96875 -2.21875 "/></g></g></g><g fill="#8c8c8c" fill-opacity="1"><g transform="translate(176.272539, 157.154519)"><g><path d="M 0.453125 0 L 0.453125 -4.28125 L 0.96875 -4.28125 L 0.96875 -0.40625 L 2.953125 -0.40625 L 2.953125 0 Z M 0.453125 0 "/></g></g></g><g fill="#8c8c8c" fill-opacity="1"><g transform="translate(184.12365, 157.154519)"><g><path d="M 0.1875 0 L 1.765625 -4.28125 L 2.296875 -4.28125 L 3.875 0 L 3.328125 0 L 2.9375 -1.09375 L 1.125 -1.09375 L 0.71875 0 Z M 1.265625 -1.515625 L 2.78125 -1.515625 L 2.03125 -3.625 Z M 1.265625 -1.515625 "/></g></g></g><g fill="#8c8c8c" fill-opacity="1"><g transform="translate(192.823368, 157.154519)"><g><path d="M 0.453125 0 L 0.453125 -4.28125 L 0.96875 -4.28125 L 3.25 -0.84375 L 3.25 -4.28125 L 3.75 -4.28125 L 3.75 0 L 3.25 0 L 0.96875 -3.421875 L 0.96875 0 Z M 0.453125 0 "/></g></g></g><g fill="#8c8c8c" fill-opacity="1"><g transform="translate(201.675707, 157.154519)"><g><path d="M 1.453125 0 L 1.453125 -3.859375 L 0.171875 -3.859375 L 0.171875 -4.28125 L 3.25 -4.28125 L 3.25 -3.859375 L 1.96875 -3.859375 L 1.96875 0 Z M 1.453125 0 "/></g></g></g><g fill="#8c8c8c" fill-opacity="1"><g transform="translate(209.740493, 157.154519)"><g><path d="M 0.1875 0 L 1.765625 -4.28125 L 2.296875 -4.28125 L 3.875 0 L 3.328125 0 L 2.9375 -1.09375 L 1.125 -1.09375 L 0.71875 0 Z M 1.265625 -1.515625 L 2.78125 -1.515625 L 2.03125 -3.625 Z M 1.265625 -1.515625 "/></g></g></g><g fill="#8c8c8c" fill-opacity="1"><g transform="translate(218.440212, 157.154519)"><g><path d="M 2.328125 0.078125 C 1.910156 0.078125 1.546875 -0.015625 1.234375 -0.203125 C 0.929688 -0.390625 0.695312 -0.648438 0.53125 -0.984375 C 0.363281 -1.316406 0.28125 -1.703125 0.28125 -2.140625 C 0.28125 -2.578125 0.363281 -2.957031 0.53125 -3.28125 C 0.695312 -3.613281 0.929688 -3.875 1.234375 -4.0625 C 1.546875 -4.25 1.910156 -4.34375 2.328125 -4.34375 C 2.816406 -4.34375 3.210938 -4.222656 3.515625 -3.984375 C 3.828125 -3.753906 4.023438 -3.429688 4.109375 -3.015625 L 3.546875 -3.015625 C 3.484375 -3.285156 3.347656 -3.5 3.140625 -3.65625 C 2.941406 -3.8125 2.671875 -3.890625 2.328125 -3.890625 C 2.023438 -3.890625 1.757812 -3.816406 1.53125 -3.671875 C 1.300781 -3.535156 1.125 -3.335938 1 -3.078125 C 0.875 -2.816406 0.8125 -2.503906 0.8125 -2.140625 C 0.8125 -1.773438 0.875 -1.457031 1 -1.1875 C 1.125 -0.925781 1.300781 -0.722656 1.53125 -0.578125 C 1.757812 -0.441406 2.023438 -0.375 2.328125 -0.375 C 2.671875 -0.375 2.941406 -0.453125 3.140625 -0.609375 C 3.347656 -0.765625 3.484375 -0.972656 3.546875 -1.234375 L 4.109375 -1.234375 C 4.023438 -0.828125 3.828125 -0.503906 3.515625 -0.265625 C 3.210938 -0.0351562 2.816406 0.078125 2.328125 0.078125 Z M 2.328125 0.078125 "/></g></g></g><g fill="#8c8c8c" fill-opacity="1"><g transform="translate(227.481811, 157.154519)"><g><path d="M 0.453125 0 L 0.453125 -4.28125 L 0.96875 -4.28125 L 0.96875 0 Z M 0.453125 0 "/></g></g></g><g fill="#8c8c8c" fill-opacity="1"><g transform="translate(233.544133, 157.154519)"><g><path d="M 2.390625 0.078125 C 1.972656 0.078125 1.601562 -0.015625 1.28125 -0.203125 C 0.96875 -0.390625 0.722656 -0.648438 0.546875 -0.984375 C 0.367188 -1.316406 0.28125 -1.703125 0.28125 -2.140625 C 0.28125 -2.578125 0.367188 -2.957031 0.546875 -3.28125 C 0.722656 -3.613281 0.96875 -3.875 1.28125 -4.0625 C 1.601562 -4.25 1.972656 -4.34375 2.390625 -4.34375 C 2.816406 -4.34375 3.1875 -4.25 3.5 -4.0625 C 3.820312 -3.875 4.066406 -3.613281 4.234375 -3.28125 C 4.410156 -2.957031 4.5 -2.578125 4.5 -2.140625 C 4.5 -1.703125 4.410156 -1.316406 4.234375 -0.984375 C 4.066406 -0.648438 3.820312 -0.390625 3.5 -0.203125 C 3.1875 -0.015625 2.816406 0.078125 2.390625 0.078125 Z M 2.390625 -0.375 C 2.703125 -0.375 2.976562 -0.441406 3.21875 -0.578125 C 3.457031 -0.722656 3.644531 -0.925781 3.78125 -1.1875 C 3.914062 -1.457031 3.984375 -1.773438 3.984375 -2.140625 C 3.984375 -2.503906 3.914062 -2.816406 3.78125 -3.078125 C 3.644531 -3.335938 3.457031 -3.535156 3.21875 -3.671875 C 2.976562 -3.816406 2.703125 -3.890625 2.390625 -3.890625 C 2.078125 -3.890625 1.800781 -3.816406 1.5625 -3.671875 C 1.320312 -3.535156 1.132812 -3.335938 1 -3.078125 C 0.875 -2.816406 0.8125 -2.503906 0.8125 -2.140625 C 0.8125 -1.773438 0.875 -1.457031 1 -1.1875 C 1.132812 -0.925781 1.320312 -0.722656 1.5625 -0.578125 C 1.800781 -0.441406 2.078125 -0.375 2.390625 -0.375 Z M 2 -4.53125 L 2 -4.90625 L 3.28125 -5.6875 L 3.28125 -5.234375 Z M 2 -4.53125 "/></g></g></g><g fill="#8c8c8c" fill-opacity="1"><g transform="translate(242.976458, 157.154519)"><g><path d="M 0.453125 0 L 0.453125 -4.28125 L 0.96875 -4.28125 L 3.25 -0.84375 L 3.25 -4.28125 L 3.75 -4.28125 L 3.75 0 L 3.25 0 L 0.96875 -3.421875 L 0.96875 0 Z M 0.453125 0 "/></g></g></g><g fill="#8c8c8c" fill-opacity="1"><g transform="translate(251.828797, 157.154519)"><g/></g></g><g fill="#8ae0db" fill-opacity="1"><g transform="translate(258.089108, 157.154519)"><g><path d="M 0.453125 0.609375 L 0.453125 -4.40625 L 0.96875 -4.40625 L 0.96875 0.609375 Z M 0.453125 0.609375 "/></g></g></g><g fill="#8c8c8c" fill-opacity="1"><g transform="translate(264.146454, 157.154519)"><g/></g></g><g fill="#8c8c8c" fill-opacity="1"><g transform="translate(270.410239, 157.154519)"><g><path d="M 0.453125 0 L 0.453125 -4.28125 L 3.0625 -4.28125 L 3.0625 -3.859375 L 0.96875 -3.859375 L 0.96875 -2.359375 L 2.75 -2.359375 L 2.75 -1.9375 L 0.96875 -1.9375 L 0.96875 0 Z M 0.453125 0 "/></g></g></g><g fill="#8c8c8c" fill-opacity="1"><g transform="translate(278.316293, 157.154519)"><g><path d="M 2.390625 0.078125 C 1.972656 0.078125 1.601562 -0.015625 1.28125 -0.203125 C 0.96875 -0.390625 0.722656 -0.648438 0.546875 -0.984375 C 0.367188 -1.316406 0.28125 -1.703125 0.28125 -2.140625 C 0.28125 -2.578125 0.367188 -2.957031 0.546875 -3.28125 C 0.722656 -3.613281 0.96875 -3.875 1.28125 -4.0625 C 1.601562 -4.25 1.972656 -4.34375 2.390625 -4.34375 C 2.816406 -4.34375 3.1875 -4.25 3.5 -4.0625 C 3.820312 -3.875 4.066406 -3.613281 4.234375 -3.28125 C 4.410156 -2.957031 4.5 -2.578125 4.5 -2.140625 C 4.5 -1.703125 4.410156 -1.316406 4.234375 -0.984375 C 4.066406 -0.648438 3.820312 -0.390625 3.5 -0.203125 C 3.1875 -0.015625 2.816406 0.078125 2.390625 0.078125 Z M 2.390625 -0.375 C 2.703125 -0.375 2.976562 -0.441406 3.21875 -0.578125 C 3.457031 -0.722656 3.644531 -0.925781 3.78125 -1.1875 C 3.914062 -1.457031 3.984375 -1.773438 3.984375 -2.140625 C 3.984375 -2.503906 3.914062 -2.816406 3.78125 -3.078125 C 3.644531 -3.335938 3.457031 -3.535156 3.21875 -3.671875 C 2.976562 -3.816406 2.703125 -3.890625 2.390625 -3.890625 C 2.078125 -3.890625 1.800781 -3.816406 1.5625 -3.671875 C 1.320312 -3.535156 1.132812 -3.335938 1 -3.078125 C 0.875 -2.816406 0.8125 -2.503906 0.8125 -2.140625 C 0.8125 -1.773438 0.875 -1.457031 1 -1.1875 C 1.132812 -0.925781 1.320312 -0.722656 1.5625 -0.578125 C 1.800781 -0.441406 2.078125 -0.375 2.390625 -0.375 Z M 2.390625 -0.375 "/></g></g></g><g fill="#8c8c8c" fill-opacity="1"><g transform="translate(287.748617, 157.154519)"><g><path d="M 0.453125 0 L 0.453125 -4.28125 L 1.828125 -4.28125 C 2.160156 -4.28125 2.429688 -4.222656 2.640625 -4.109375 C 2.859375 -4.003906 3.019531 -3.851562 3.125 -3.65625 C 3.226562 -3.46875 3.28125 -3.257812 3.28125 -3.03125 C 3.28125 -2.757812 3.207031 -2.515625 3.0625 -2.296875 C 2.914062 -2.078125 2.6875 -1.925781 2.375 -1.84375 L 3.3125 0 L 2.71875 0 L 1.84375 -1.765625 L 0.96875 -1.765625 L 0.96875 0 Z M 0.96875 -2.171875 L 1.796875 -2.171875 C 2.128906 -2.171875 2.367188 -2.25 2.515625 -2.40625 C 2.671875 -2.5625 2.75 -2.765625 2.75 -3.015625 C 2.75 -3.265625 2.671875 -3.460938 2.515625 -3.609375 C 2.367188 -3.765625 2.128906 -3.84375 1.796875 -3.84375 L 0.96875 -3.84375 Z M 0.96875 -2.171875 "/></g></g></g><g fill="#8c8c8c" fill-opacity="1"><g transform="translate(296.014865, 157.154519)"><g><path d="M 0.453125 0 L 0.453125 -4.28125 L 1.046875 -4.28125 L 2.59375 -1.296875 L 4.125 -4.28125 L 4.71875 -4.28125 L 4.71875 0 L 4.203125 0 L 4.203125 -3.359375 L 2.78125 -0.609375 L 2.390625 -0.609375 L 0.96875 -3.359375 L 0.96875 0 Z M 0.453125 0 "/></g></g></g><g fill="#8c8c8c" fill-opacity="1"><g transform="translate(305.831814, 157.154519)"><g><path d="M 0.1875 0 L 1.765625 -4.28125 L 2.296875 -4.28125 L 3.875 0 L 3.328125 0 L 2.9375 -1.09375 L 1.125 -1.09375 L 0.71875 0 Z M 1.265625 -1.515625 L 2.78125 -1.515625 L 2.03125 -3.625 Z M 1.265625 -1.515625 "/></g></g></g><g fill="#8c8c8c" fill-opacity="1"><g transform="translate(314.531532, 157.154519)"><g><path d="M 2.328125 0.078125 C 1.910156 0.078125 1.546875 -0.015625 1.234375 -0.203125 C 0.929688 -0.390625 0.695312 -0.648438 0.53125 -0.984375 C 0.363281 -1.316406 0.28125 -1.703125 0.28125 -2.140625 C 0.28125 -2.578125 0.363281 -2.957031 0.53125 -3.28125 C 0.695312 -3.613281 0.929688 -3.875 1.234375 -4.0625 C 1.546875 -4.25 1.910156 -4.34375 2.328125 -4.34375 C 2.816406 -4.34375 3.210938 -4.222656 3.515625 -3.984375 C 3.828125 -3.753906 4.023438 -3.429688 4.109375 -3.015625 L 3.546875 -3.015625 C 3.484375 -3.285156 3.347656 -3.5 3.140625 -3.65625 C 2.941406 -3.8125 2.671875 -3.890625 2.328125 -3.890625 C 2.023438 -3.890625 1.757812 -3.816406 1.53125 -3.671875 C 1.300781 -3.535156 1.125 -3.335938 1 -3.078125 C 0.875 -2.816406 0.8125 -2.503906 0.8125 -2.140625 C 0.8125 -1.773438 0.875 -1.457031 1 -1.1875 C 1.125 -0.925781 1.300781 -0.722656 1.53125 -0.578125 C 1.757812 -0.441406 2.023438 -0.375 2.328125 -0.375 C 2.671875 -0.375 2.941406 -0.453125 3.140625 -0.609375 C 3.347656 -0.765625 3.484375 -0.972656 3.546875 -1.234375 L 4.109375 -1.234375 C 4.023438 -0.828125 3.828125 -0.503906 3.515625 -0.265625 C 3.210938 -0.0351562 2.816406 0.078125 2.328125 0.078125 Z M 2.328125 0.078125 "/></g></g></g><g fill="#8c8c8c" fill-opacity="1"><g transform="translate(323.573132, 157.154519)"><g><path d="M 0.453125 0 L 0.453125 -4.28125 L 0.96875 -4.28125 L 0.96875 0 Z M 0.453125 0 "/></g></g></g><g fill="#8c8c8c" fill-opacity="1"><g transform="translate(329.635454, 157.154519)"><g><path d="M 2.390625 0.078125 C 1.972656 0.078125 1.601562 -0.015625 1.28125 -0.203125 C 0.96875 -0.390625 0.722656 -0.648438 0.546875 -0.984375 C 0.367188 -1.316406 0.28125 -1.703125 0.28125 -2.140625 C 0.28125 -2.578125 0.367188 -2.957031 0.546875 -3.28125 C 0.722656 -3.613281 0.96875 -3.875 1.28125 -4.0625 C 1.601562 -4.25 1.972656 -4.34375 2.390625 -4.34375 C 2.816406 -4.34375 3.1875 -4.25 3.5 -4.0625 C 3.820312 -3.875 4.066406 -3.613281 4.234375 -3.28125 C 4.410156 -2.957031 4.5 -2.578125 4.5 -2.140625 C 4.5 -1.703125 4.410156 -1.316406 4.234375 -0.984375 C 4.066406 -0.648438 3.820312 -0.390625 3.5 -0.203125 C 3.1875 -0.015625 2.816406 0.078125 2.390625 0.078125 Z M 2.390625 -0.375 C 2.703125 -0.375 2.976562 -0.441406 3.21875 -0.578125 C 3.457031 -0.722656 3.644531 -0.925781 3.78125 -1.1875 C 3.914062 -1.457031 3.984375 -1.773438 3.984375 -2.140625 C 3.984375 -2.503906 3.914062 -2.816406 3.78125 -3.078125 C 3.644531 -3.335938 3.457031 -3.535156 3.21875 -3.671875 C 2.976562 -3.816406 2.703125 -3.890625 2.390625 -3.890625 C 2.078125 -3.890625 1.800781 -3.816406 1.5625 -3.671875 C 1.320312 -3.535156 1.132812 -3.335938 1 -3.078125 C 0.875 -2.816406 0.8125 -2.503906 0.8125 -2.140625 C 0.8125 -1.773438 0.875 -1.457031 1 -1.1875 C 1.132812 -0.925781 1.320312 -0.722656 1.5625 -0.578125 C 1.800781 -0.441406 2.078125 -0.375 2.390625 -0.375 Z M 2 -4.53125 L 2 -4.90625 L 3.28125 -5.6875 L 3.28125 -5.234375 Z M 2 -4.53125 "/></g></g></g><g fill="#8c8c8c" fill-opacity="1"><g transform="translate(339.067779, 157.154519)"><g><path d="M 0.453125 0 L 0.453125 -4.28125 L 0.96875 -4.28125 L 3.25 -0.84375 L 3.25 -4.28125 L 3.75 -4.28125 L 3.75 0 L 3.25 0 L 0.96875 -3.421875 L 0.96875 0 Z M 0.453125 0 "/></g></g></g><g fill="#8c8c8c" fill-opacity="1"><g transform="translate(347.915894, 157.154519)"><g/></g></g><g fill="#8c8c8c" fill-opacity="1"><g transform="translate(354.179679, 157.154519)"><g/></g></g><g fill="#666666" fill-opacity="1"><g transform="translate(76.918447, 115.211451)"><g><path d="M 0.21875 0 L 2.0625 -5 L 2.6875 -5 L 4.53125 0 L 3.890625 0 L 3.4375 -1.28125 L 1.3125 -1.28125 L 0.84375 0 Z M 1.484375 -1.765625 L 3.25 -1.765625 L 2.375 -4.234375 Z M 1.484375 -1.765625 "/></g></g></g><g fill="#666666" fill-opacity="1"><g transform="translate(87.091839, 115.211451)"><g><path d="M 2.125 0.078125 C 1.757812 0.078125 1.4375 0.015625 1.15625 -0.109375 C 0.882812 -0.242188 0.675781 -0.429688 0.53125 -0.671875 C 0.382812 -0.910156 0.3125 -1.1875 0.3125 -1.5 L 0.9375 -1.5 C 0.9375 -1.300781 0.984375 -1.117188 1.078125 -0.953125 C 1.171875 -0.796875 1.300781 -0.664062 1.46875 -0.5625 C 1.644531 -0.46875 1.863281 -0.421875 2.125 -0.421875 C 2.457031 -0.421875 2.71875 -0.5 2.90625 -0.65625 C 3.09375 -0.820312 3.1875 -1.023438 3.1875 -1.265625 C 3.1875 -1.472656 3.140625 -1.632812 3.046875 -1.75 C 2.960938 -1.875 2.847656 -1.972656 2.703125 -2.046875 C 2.554688 -2.117188 2.390625 -2.179688 2.203125 -2.234375 C 2.015625 -2.296875 1.820312 -2.363281 1.625 -2.4375 C 1.238281 -2.570312 0.953125 -2.738281 0.765625 -2.9375 C 0.578125 -3.132812 0.484375 -3.394531 0.484375 -3.71875 C 0.484375 -3.976562 0.546875 -4.210938 0.671875 -4.421875 C 0.796875 -4.628906 0.976562 -4.789062 1.21875 -4.90625 C 1.457031 -5.019531 1.738281 -5.078125 2.0625 -5.078125 C 2.375 -5.078125 2.644531 -5.019531 2.875 -4.90625 C 3.113281 -4.789062 3.300781 -4.625 3.4375 -4.40625 C 3.570312 -4.195312 3.640625 -3.960938 3.640625 -3.703125 L 3.015625 -3.703125 C 3.015625 -3.835938 2.976562 -3.972656 2.90625 -4.109375 C 2.832031 -4.242188 2.722656 -4.351562 2.578125 -4.4375 C 2.429688 -4.519531 2.25 -4.5625 2.03125 -4.5625 C 1.757812 -4.570312 1.535156 -4.503906 1.359375 -4.359375 C 1.191406 -4.222656 1.109375 -4.023438 1.109375 -3.765625 C 1.109375 -3.554688 1.164062 -3.394531 1.28125 -3.28125 C 1.40625 -3.164062 1.578125 -3.070312 1.796875 -3 C 2.015625 -2.925781 2.269531 -2.835938 2.5625 -2.734375 C 2.789062 -2.648438 3 -2.550781 3.1875 -2.4375 C 3.382812 -2.320312 3.535156 -2.175781 3.640625 -2 C 3.753906 -1.820312 3.8125 -1.59375 3.8125 -1.3125 C 3.8125 -1.070312 3.75 -0.84375 3.625 -0.625 C 3.5 -0.414062 3.3125 -0.242188 3.0625 -0.109375 C 2.8125 0.015625 2.5 0.078125 2.125 0.078125 Z M 2.125 0.078125 "/></g></g></g><g fill="#666666" fill-opacity="1"><g transform="translate(96.651253, 115.211451)"><g><path d="M 0.53125 0 L 0.53125 -5 L 3.625 -5 L 3.625 -4.5 L 1.125 -4.5 L 1.125 -2.765625 L 3.40625 -2.765625 L 3.40625 -2.28125 L 1.125 -2.28125 L 1.125 -0.5 L 3.625 -0.5 L 3.625 0 Z M 0.53125 0 "/></g></g></g><g fill="#666666" fill-opacity="1"><g transform="translate(106.110719, 115.211451)"><g><path d="M 2.125 0.078125 C 1.757812 0.078125 1.4375 0.015625 1.15625 -0.109375 C 0.882812 -0.242188 0.675781 -0.429688 0.53125 -0.671875 C 0.382812 -0.910156 0.3125 -1.1875 0.3125 -1.5 L 0.9375 -1.5 C 0.9375 -1.300781 0.984375 -1.117188 1.078125 -0.953125 C 1.171875 -0.796875 1.300781 -0.664062 1.46875 -0.5625 C 1.644531 -0.46875 1.863281 -0.421875 2.125 -0.421875 C 2.457031 -0.421875 2.71875 -0.5 2.90625 -0.65625 C 3.09375 -0.820312 3.1875 -1.023438 3.1875 -1.265625 C 3.1875 -1.472656 3.140625 -1.632812 3.046875 -1.75 C 2.960938 -1.875 2.847656 -1.972656 2.703125 -2.046875 C 2.554688 -2.117188 2.390625 -2.179688 2.203125 -2.234375 C 2.015625 -2.296875 1.820312 -2.363281 1.625 -2.4375 C 1.238281 -2.570312 0.953125 -2.738281 0.765625 -2.9375 C 0.578125 -3.132812 0.484375 -3.394531 0.484375 -3.71875 C 0.484375 -3.976562 0.546875 -4.210938 0.671875 -4.421875 C 0.796875 -4.628906 0.976562 -4.789062 1.21875 -4.90625 C 1.457031 -5.019531 1.738281 -5.078125 2.0625 -5.078125 C 2.375 -5.078125 2.644531 -5.019531 2.875 -4.90625 C 3.113281 -4.789062 3.300781 -4.625 3.4375 -4.40625 C 3.570312 -4.195312 3.640625 -3.960938 3.640625 -3.703125 L 3.015625 -3.703125 C 3.015625 -3.835938 2.976562 -3.972656 2.90625 -4.109375 C 2.832031 -4.242188 2.722656 -4.351562 2.578125 -4.4375 C 2.429688 -4.519531 2.25 -4.5625 2.03125 -4.5625 C 1.757812 -4.570312 1.535156 -4.503906 1.359375 -4.359375 C 1.191406 -4.222656 1.109375 -4.023438 1.109375 -3.765625 C 1.109375 -3.554688 1.164062 -3.394531 1.28125 -3.28125 C 1.40625 -3.164062 1.578125 -3.070312 1.796875 -3 C 2.015625 -2.925781 2.269531 -2.835938 2.5625 -2.734375 C 2.789062 -2.648438 3 -2.550781 3.1875 -2.4375 C 3.382812 -2.320312 3.535156 -2.175781 3.640625 -2 C 3.753906 -1.820312 3.8125 -1.59375 3.8125 -1.3125 C 3.8125 -1.070312 3.75 -0.84375 3.625 -0.625 C 3.5 -0.414062 3.3125 -0.242188 3.0625 -0.109375 C 2.8125 0.015625 2.5 0.078125 2.125 0.078125 Z M 2.125 0.078125 "/></g></g></g><g fill="#666666" fill-opacity="1"><g transform="translate(115.670133, 115.211451)"><g><path d="M 2.796875 0.078125 C 2.304688 0.078125 1.875 -0.0234375 1.5 -0.234375 C 1.132812 -0.453125 0.847656 -0.753906 0.640625 -1.140625 C 0.429688 -1.535156 0.328125 -1.988281 0.328125 -2.5 C 0.328125 -3.007812 0.429688 -3.457031 0.640625 -3.84375 C 0.847656 -4.226562 1.132812 -4.53125 1.5 -4.75 C 1.875 -4.96875 2.304688 -5.078125 2.796875 -5.078125 C 3.296875 -5.078125 3.726562 -4.96875 4.09375 -4.75 C 4.46875 -4.53125 4.753906 -4.226562 4.953125 -3.84375 C 5.160156 -3.457031 5.265625 -3.007812 5.265625 -2.5 C 5.265625 -1.988281 5.160156 -1.535156 4.953125 -1.140625 C 4.753906 -0.753906 4.46875 -0.453125 4.09375 -0.234375 C 3.726562 -0.0234375 3.296875 0.078125 2.796875 0.078125 Z M 2.796875 -0.4375 C 3.160156 -0.4375 3.484375 -0.519531 3.765625 -0.6875 C 4.046875 -0.851562 4.265625 -1.085938 4.421875 -1.390625 C 4.578125 -1.703125 4.65625 -2.070312 4.65625 -2.5 C 4.65625 -2.925781 4.578125 -3.289062 4.421875 -3.59375 C 4.265625 -3.90625 4.046875 -4.140625 3.765625 -4.296875 C 3.484375 -4.460938 3.160156 -4.546875 2.796875 -4.546875 C 2.429688 -4.546875 2.109375 -4.460938 1.828125 -4.296875 C 1.546875 -4.140625 1.328125 -3.90625 1.171875 -3.59375 C 1.023438 -3.289062 0.953125 -2.925781 0.953125 -2.5 C 0.953125 -2.070312 1.023438 -1.703125 1.171875 -1.390625 C 1.328125 -1.085938 1.546875 -0.851562 1.828125 -0.6875 C 2.109375 -0.519531 2.429688 -0.4375 2.796875 -0.4375 Z M 2.796875 -0.4375 "/></g></g></g><g fill="#666666" fill-opacity="1"><g transform="translate(126.700233, 115.211451)"><g><path d="M 0.53125 0 L 0.53125 -5 L 2.140625 -5 C 2.535156 -5 2.851562 -4.929688 3.09375 -4.796875 C 3.34375 -4.671875 3.523438 -4.492188 3.640625 -4.265625 C 3.765625 -4.046875 3.828125 -3.800781 3.828125 -3.53125 C 3.828125 -3.21875 3.742188 -2.9375 3.578125 -2.6875 C 3.410156 -2.4375 3.144531 -2.257812 2.78125 -2.15625 L 3.875 0 L 3.171875 0 L 2.15625 -2.0625 L 1.125 -2.0625 L 1.125 0 Z M 1.125 -2.53125 L 2.09375 -2.53125 C 2.476562 -2.53125 2.757812 -2.625 2.9375 -2.8125 C 3.113281 -3 3.203125 -3.238281 3.203125 -3.53125 C 3.203125 -3.820312 3.113281 -4.050781 2.9375 -4.21875 C 2.769531 -4.394531 2.488281 -4.484375 2.09375 -4.484375 L 1.125 -4.484375 Z M 1.125 -2.53125 "/></g></g></g><g fill="#666666" fill-opacity="1"><g transform="translate(136.366733, 115.211451)"><g><path d="M 0.53125 0 L 0.53125 -5 L 1.125 -5 L 1.125 0 Z M 1 -5.296875 L 1 -5.734375 L 2.5 -6.640625 L 2.5 -6.125 Z M 1 -5.296875 "/></g></g></g><g fill="#666666" fill-opacity="1"><g transform="translate(143.455973, 115.211451)"><g><path d="M 0.21875 0 L 2.0625 -5 L 2.6875 -5 L 4.53125 0 L 3.890625 0 L 3.4375 -1.28125 L 1.3125 -1.28125 L 0.84375 0 Z M 1.484375 -1.765625 L 3.25 -1.765625 L 2.375 -4.234375 Z M 1.484375 -1.765625 "/></g></g></g><g fill="#666666" fill-opacity="1"><g transform="translate(153.629368, 115.211451)"><g/></g></g><g fill="#666666" fill-opacity="1"><g transform="translate(160.9542, 115.211451)"><g><path d="M 0.53125 0 L 0.53125 -5 L 3.625 -5 L 3.625 -4.5 L 1.125 -4.5 L 1.125 -2.765625 L 3.40625 -2.765625 L 3.40625 -2.28125 L 1.125 -2.28125 L 1.125 -0.5 L 3.625 -0.5 L 3.625 0 Z M 0.53125 0 "/></g></g></g><g fill="#666666" fill-opacity="1"><g transform="translate(170.413668, 115.211451)"><g><path d="M 0.53125 0 L 0.53125 -5 L 1.125 -5 L 3.796875 -1 L 3.796875 -5 L 4.390625 -5 L 4.390625 0 L 3.796875 0 L 1.125 -4 L 1.125 0 Z M 0.53125 0 "/></g></g></g><g fill="#666666" fill-opacity="1"><g transform="translate(180.765535, 115.211451)"><g/></g></g><g fill="#666666" fill-opacity="1"><g transform="translate(188.090367, 115.211451)"><g><path d="M 0.53125 0 L 0.53125 -5 L 3.625 -5 L 3.625 -4.5 L 1.125 -4.5 L 1.125 -2.765625 L 3.40625 -2.765625 L 3.40625 -2.28125 L 1.125 -2.28125 L 1.125 -0.5 L 3.625 -0.5 L 3.625 0 Z M 0.53125 0 "/></g></g></g><g fill="#666666" fill-opacity="1"><g transform="translate(197.549835, 115.211451)"><g><path d="M 0.53125 0 L 0.53125 -5 L 1.234375 -5 L 3.03125 -1.515625 L 4.8125 -5 L 5.515625 -5 L 5.515625 0 L 4.921875 0 L 4.921875 -3.921875 L 3.25 -0.71875 L 2.796875 -0.71875 L 1.125 -3.921875 L 1.125 0 Z M 0.53125 0 "/></g></g></g><g fill="#666666" fill-opacity="1"><g transform="translate(209.029711, 115.211451)"><g><path d="M 0.53125 0 L 0.53125 -5 L 3.625 -5 L 3.625 -4.5 L 1.125 -4.5 L 1.125 -2.765625 L 3.40625 -2.765625 L 3.40625 -2.28125 L 1.125 -2.28125 L 1.125 -0.5 L 3.625 -0.5 L 3.625 0 Z M 0.53125 0 "/></g></g></g><g fill="#666666" fill-opacity="1"><g transform="translate(218.489179, 115.211451)"><g><path d="M 0.53125 0 L 0.53125 -5 L 2.140625 -5 C 2.535156 -5 2.851562 -4.929688 3.09375 -4.796875 C 3.34375 -4.671875 3.523438 -4.492188 3.640625 -4.265625 C 3.765625 -4.046875 3.828125 -3.800781 3.828125 -3.53125 C 3.828125 -3.21875 3.742188 -2.9375 3.578125 -2.6875 C 3.410156 -2.4375 3.144531 -2.257812 2.78125 -2.15625 L 3.875 0 L 3.171875 0 L 2.15625 -2.0625 L 1.125 -2.0625 L 1.125 0 Z M 1.125 -2.53125 L 2.09375 -2.53125 C 2.476562 -2.53125 2.757812 -2.625 2.9375 -2.8125 C 3.113281 -3 3.203125 -3.238281 3.203125 -3.53125 C 3.203125 -3.820312 3.113281 -4.050781 2.9375 -4.21875 C 2.769531 -4.394531 2.488281 -4.484375 2.09375 -4.484375 L 1.125 -4.484375 Z M 1.125 -2.53125 "/></g></g></g><g fill="#666666" fill-opacity="1"><g transform="translate(228.155679, 115.211451)"><g><path d="M 2.671875 0.078125 C 2.210938 0.078125 1.804688 -0.0234375 1.453125 -0.234375 C 1.097656 -0.453125 0.820312 -0.753906 0.625 -1.140625 C 0.425781 -1.535156 0.328125 -1.984375 0.328125 -2.484375 C 0.328125 -2.992188 0.425781 -3.441406 0.625 -3.828125 C 0.820312 -4.222656 1.101562 -4.53125 1.46875 -4.75 C 1.832031 -4.96875 2.265625 -5.078125 2.765625 -5.078125 C 3.328125 -5.078125 3.796875 -4.941406 4.171875 -4.671875 C 4.546875 -4.398438 4.785156 -4.03125 4.890625 -3.5625 L 4.203125 -3.5625 C 4.128906 -3.851562 3.96875 -4.085938 3.71875 -4.265625 C 3.46875 -4.441406 3.148438 -4.53125 2.765625 -4.53125 C 2.398438 -4.53125 2.082031 -4.445312 1.8125 -4.28125 C 1.539062 -4.125 1.328125 -3.890625 1.171875 -3.578125 C 1.023438 -3.273438 0.953125 -2.910156 0.953125 -2.484375 C 0.953125 -2.066406 1.023438 -1.703125 1.171875 -1.390625 C 1.316406 -1.085938 1.519531 -0.851562 1.78125 -0.6875 C 2.039062 -0.53125 2.347656 -0.453125 2.703125 -0.453125 C 3.234375 -0.453125 3.632812 -0.609375 3.90625 -0.921875 C 4.175781 -1.234375 4.332031 -1.660156 4.375 -2.203125 L 2.921875 -2.203125 L 2.921875 -2.671875 L 4.984375 -2.671875 L 4.984375 0 L 4.4375 0 L 4.390625 -0.828125 C 4.203125 -0.535156 3.976562 -0.3125 3.71875 -0.15625 C 3.457031 0 3.109375 0.078125 2.671875 0.078125 Z M 2.671875 0.078125 "/></g></g></g><g fill="#666666" fill-opacity="1"><g transform="translate(238.993017, 115.211451)"><g><path d="M 0.53125 0 L 0.53125 -5 L 3.625 -5 L 3.625 -4.5 L 1.125 -4.5 L 1.125 -2.765625 L 3.40625 -2.765625 L 3.40625 -2.28125 L 1.125 -2.28125 L 1.125 -0.5 L 3.625 -0.5 L 3.625 0 Z M 0.53125 0 "/></g></g></g><g fill="#666666" fill-opacity="1"><g transform="translate(248.452485, 115.211451)"><g><path d="M 0.53125 0 L 0.53125 -5 L 1.125 -5 L 3.796875 -1 L 3.796875 -5 L 4.390625 -5 L 4.390625 0 L 3.796875 0 L 1.125 -4 L 1.125 0 Z M 0.53125 0 "/></g></g></g><g fill="#666666" fill-opacity="1"><g transform="translate(258.804353, 115.211451)"><g><path d="M 2.71875 0.078125 C 2.226562 0.078125 1.804688 -0.0234375 1.453125 -0.234375 C 1.097656 -0.453125 0.820312 -0.753906 0.625 -1.140625 C 0.425781 -1.535156 0.328125 -1.988281 0.328125 -2.5 C 0.328125 -3.007812 0.425781 -3.457031 0.625 -3.84375 C 0.820312 -4.226562 1.097656 -4.53125 1.453125 -4.75 C 1.804688 -4.96875 2.226562 -5.078125 2.71875 -5.078125 C 3.289062 -5.078125 3.753906 -4.941406 4.109375 -4.671875 C 4.472656 -4.398438 4.707031 -4.019531 4.8125 -3.53125 L 4.140625 -3.53125 C 4.066406 -3.832031 3.910156 -4.078125 3.671875 -4.265625 C 3.441406 -4.460938 3.125 -4.5625 2.71875 -4.5625 C 2.363281 -4.5625 2.050781 -4.476562 1.78125 -4.3125 C 1.519531 -4.144531 1.316406 -3.90625 1.171875 -3.59375 C 1.023438 -3.289062 0.953125 -2.925781 0.953125 -2.5 C 0.953125 -2.070312 1.023438 -1.703125 1.171875 -1.390625 C 1.316406 -1.085938 1.519531 -0.851562 1.78125 -0.6875 C 2.050781 -0.519531 2.363281 -0.4375 2.71875 -0.4375 C 3.125 -0.4375 3.441406 -0.53125 3.671875 -0.71875 C 3.910156 -0.90625 4.066406 -1.148438 4.140625 -1.453125 L 4.8125 -1.453125 C 4.707031 -0.972656 4.472656 -0.597656 4.109375 -0.328125 C 3.753906 -0.0546875 3.289062 0.078125 2.71875 0.078125 Z M 2.71875 0.078125 "/></g></g></g><g fill="#666666" fill-opacity="1"><g transform="translate(269.377541, 115.211451)"><g><path d="M 0.53125 0 L 0.53125 -5 L 1.125 -5 L 1.125 0 Z M 0.53125 0 "/></g></g></g><g fill="#666666" fill-opacity="1"><g transform="translate(276.466772, 115.211451)"><g><path d="M 0.21875 0 L 2.0625 -5 L 2.6875 -5 L 4.53125 0 L 3.890625 0 L 3.4375 -1.28125 L 1.3125 -1.28125 L 0.84375 0 Z M 1.484375 -1.765625 L 3.25 -1.765625 L 2.375 -4.234375 Z M 1.484375 -1.765625 "/></g></g></g><g fill="#666666" fill-opacity="1"><g transform="translate(286.640167, 115.211451)"><g><path d="M 2.125 0.078125 C 1.757812 0.078125 1.4375 0.015625 1.15625 -0.109375 C 0.882812 -0.242188 0.675781 -0.429688 0.53125 -0.671875 C 0.382812 -0.910156 0.3125 -1.1875 0.3125 -1.5 L 0.9375 -1.5 C 0.9375 -1.300781 0.984375 -1.117188 1.078125 -0.953125 C 1.171875 -0.796875 1.300781 -0.664062 1.46875 -0.5625 C 1.644531 -0.46875 1.863281 -0.421875 2.125 -0.421875 C 2.457031 -0.421875 2.71875 -0.5 2.90625 -0.65625 C 3.09375 -0.820312 3.1875 -1.023438 3.1875 -1.265625 C 3.1875 -1.472656 3.140625 -1.632812 3.046875 -1.75 C 2.960938 -1.875 2.847656 -1.972656 2.703125 -2.046875 C 2.554688 -2.117188 2.390625 -2.179688 2.203125 -2.234375 C 2.015625 -2.296875 1.820312 -2.363281 1.625 -2.4375 C 1.238281 -2.570312 0.953125 -2.738281 0.765625 -2.9375 C 0.578125 -3.132812 0.484375 -3.394531 0.484375 -3.71875 C 0.484375 -3.976562 0.546875 -4.210938 0.671875 -4.421875 C 0.796875 -4.628906 0.976562 -4.789062 1.21875 -4.90625 C 1.457031 -5.019531 1.738281 -5.078125 2.0625 -5.078125 C 2.375 -5.078125 2.644531 -5.019531 2.875 -4.90625 C 3.113281 -4.789062 3.300781 -4.625 3.4375 -4.40625 C 3.570312 -4.195312 3.640625 -3.960938 3.640625 -3.703125 L 3.015625 -3.703125 C 3.015625 -3.835938 2.976562 -3.972656 2.90625 -4.109375 C 2.832031 -4.242188 2.722656 -4.351562 2.578125 -4.4375 C 2.429688 -4.519531 2.25 -4.5625 2.03125 -4.5625 C 1.757812 -4.570312 1.535156 -4.503906 1.359375 -4.359375 C 1.191406 -4.222656 1.109375 -4.023438 1.109375 -3.765625 C 1.109375 -3.554688 1.164062 -3.394531 1.28125 -3.28125 C 1.40625 -3.164062 1.578125 -3.070312 1.796875 -3 C 2.015625 -2.925781 2.269531 -2.835938 2.5625 -2.734375 C 2.789062 -2.648438 3 -2.550781 3.1875 -2.4375 C 3.382812 -2.320312 3.535156 -2.175781 3.640625 -2 C 3.753906 -1.820312 3.8125 -1.59375 3.8125 -1.3125 C 3.8125 -1.070312 3.75 -0.84375 3.625 -0.625 C 3.5 -0.414062 3.3125 -0.242188 3.0625 -0.109375 C 2.8125 0.015625 2.5 0.078125 2.125 0.078125 Z M 2.125 0.078125 "/></g></g></g><g fill="#666666" fill-opacity="1"><g transform="translate(296.197749, 115.211451)"><g/></g></g></svg>
